<?xml version="1.0"?>
<svg xmlns="http://www.w3.org/2000/svg" xmlns:xlink="http://www.w3.org/1999/xlink" xmlns:svgjs="http://svgjs.com/svgjs" version="1.1" width="48" height="48" x="0" y="0" viewBox="0 0 480 480" style="enable-background:new 0 0 512 512" xml:space="preserve" class=""><g>
<g xmlns="http://www.w3.org/2000/svg">
	<g>
		<path d="M472,72H40c-4.418,0-8,3.582-8,8v56H8c-4.418,0-8,3.582-8,8v240c0,13.255,10.745,24,24,24h448c4.418,0,8-3.582,8-8V80    C480,75.582,476.418,72,472,72z M32,384c0,4.418-3.582,8-8,8s-8-3.582-8-8V152h16V384z M464,392H46.528    c0.948-2.562,1.445-5.268,1.472-8V88h416V392z" fill="#fa8d34" data-original="#000000" style="" class=""/>
	</g>
</g>
<g xmlns="http://www.w3.org/2000/svg">
	<g>
		<path d="M440,104H72c-4.418,0-8,3.582-8,8v104c0,4.418,3.582,8,8,8h368c4.418,0,8-3.582,8-8V112C448,107.582,444.418,104,440,104z     M432,208H80v-88h352V208z" fill="#fa8d34" data-original="#000000" style="" class=""/>
	</g>
</g>
<g xmlns="http://www.w3.org/2000/svg">
	<g>
		<path d="M240,240H72c-4.418,0-8,3.582-8,8v56c0,4.418,3.582,8,8,8h168c4.418,0,8-3.582,8-8v-56C248,243.582,244.418,240,240,240z     M232,296H80v-40h152V296z" fill="#fa8d34" data-original="#000000" style="" class=""/>
	</g>
</g>
<g xmlns="http://www.w3.org/2000/svg">
	<g>
		<path d="M440,296H272c-4.418,0-8,3.582-8,8v64c0,4.418,3.582,8,8,8h168c4.418,0,8-3.582,8-8v-64C448,299.582,444.418,296,440,296z     M432,360H280v-48h152V360z" fill="#fa8d34" data-original="#000000" style="" class=""/>
	</g>
</g>
<g xmlns="http://www.w3.org/2000/svg">
	<g>
		<rect x="264" y="256" width="176" height="16" fill="#fa8d34" data-original="#000000" style="" class=""/>
	</g>
</g>
<g xmlns="http://www.w3.org/2000/svg">
	<g>
		<rect x="64" y="328" width="184" height="16" fill="#fa8d34" data-original="#000000" style="" class=""/>
	</g>
</g>
<g xmlns="http://www.w3.org/2000/svg">
	<g>
		<rect x="64" y="360" width="184" height="16" fill="#fa8d34" data-original="#000000" style="" class=""/>
	</g>
</g>
<g xmlns="http://www.w3.org/2000/svg">
	<g>
		<rect x="96" y="136" width="32" height="16" fill="#fa8d34" data-original="#000000" style="" class=""/>
	</g>
</g>
<g xmlns="http://www.w3.org/2000/svg">
	<g>
		<rect x="96" y="168" width="64" height="16" fill="#fa8d34" data-original="#000000" style="" class=""/>
	</g>
</g>
<g xmlns="http://www.w3.org/2000/svg">
	<g>
		<rect x="312" y="176" width="104" height="16" fill="#fa8d34" data-original="#000000" style="" class=""/>
	</g>
</g>
<g xmlns="http://www.w3.org/2000/svg">
</g>
<g xmlns="http://www.w3.org/2000/svg">
</g>
<g xmlns="http://www.w3.org/2000/svg">
</g>
<g xmlns="http://www.w3.org/2000/svg">
</g>
<g xmlns="http://www.w3.org/2000/svg">
</g>
<g xmlns="http://www.w3.org/2000/svg">
</g>
<g xmlns="http://www.w3.org/2000/svg">
</g>
<g xmlns="http://www.w3.org/2000/svg">
</g>
<g xmlns="http://www.w3.org/2000/svg">
</g>
<g xmlns="http://www.w3.org/2000/svg">
</g>
<g xmlns="http://www.w3.org/2000/svg">
</g>
<g xmlns="http://www.w3.org/2000/svg">
</g>
<g xmlns="http://www.w3.org/2000/svg">
</g>
<g xmlns="http://www.w3.org/2000/svg">
</g>
<g xmlns="http://www.w3.org/2000/svg">
</g>
</g></svg>
